<svg version="1.1" viewBox="0.0 0.0 960.0 540.0" fill="none" stroke="none" stroke-linecap="square" stroke-miterlimit="10" xmlns:xlink="http://www.w3.org/1999/xlink" xmlns="http://www.w3.org/2000/svg"><clipPath id="p.0"><path d="m0 0l960.0 0l0 540.0l-960.0 0l0 -540.0z" clip-rule="nonzero"/></clipPath><g clip-path="url(#p.0)"><path fill="#111111" d="m0 0l960.0 0l0 540.0l-960.0 0z" fill-rule="evenodd"/><path fill="#ff3258" fill-opacity="0.0941" d="m787.5489 467.5812l0 0l0 0c4.4105225 0 8.640381 1.7520752 11.759155 4.8707886c3.1187134 3.1187134 4.8707886 7.3486023 4.8707886 11.759125l0 55.653564c0 1.2207031E-4 -1.2207031E-4 2.4414062E-4 -3.0517578E-4 2.4414062E-4l-33.259583 -2.4414062E-4l0 0c-1.2207031E-4 0 -2.4414062E-4 -1.2207031E-4 -2.4414062E-4 -3.0517578E-4l2.4414062E-4 -55.65326l0 0c0 -9.184448 7.4454956 -16.629913 16.629944 -16.629913z" fill-rule="evenodd"/><path fill="#ff3258" fill-opacity="0.0941" d="m787.5489 504.11795l0 0l0 0c4.4105225 0 8.640381 1.7520752 11.759155 4.8707886c3.1187134 3.118744 4.8707886 7.3486023 4.8707886 11.759125l0 19.118103c0 1.8310547E-4 -1.2207031E-4 3.0517578E-4 -3.0517578E-4 3.0517578E-4l-33.259583 -3.0517578E-4l0 0c-1.2207031E-4 0 -2.4414062E-4 -1.2207031E-4 -2.4414062E-4 -2.4414062E-4l2.4414062E-4 -19.117859l0 0c0 -9.184448 7.4454956 -16.629913 16.629944 -16.629913z" fill-rule="evenodd"/><path fill="#ff3258" fill-opacity="0.0941" d="m835.6546 467.5812l0 0l0 0c4.4105225 0 8.640442 1.7520752 11.759155 4.8707886c3.1187134 3.1187134 4.8707886 7.3486023 4.8707886 11.759125l0 55.653564c0 1.2207031E-4 -1.2207031E-4 2.4414062E-4 -3.0517578E-4 2.4414062E-4l-33.259583 -2.4414062E-4l0 0c-1.2207031E-4 0 -2.4414062E-4 -1.2207031E-4 -2.4414062E-4 -3.0517578E-4l2.4414062E-4 -55.65326l0 0c0 -9.184448 7.4454956 -16.629913 16.629944 -16.629913z" fill-rule="evenodd"/><path fill="#ff3258" fill-opacity="0.0941" d="m835.6546 431.04462l0 0l0 0c4.4105225 0 8.640442 1.7520752 11.759155 4.8707886c3.1187134 3.1187134 4.8707886 7.3486023 4.8707886 11.759125l0 92.188995c0 1.2207031E-4 -1.2207031E-4 2.4414062E-4 -3.0517578E-4 2.4414062E-4l-33.259583 -2.4414062E-4l0 0c-1.2207031E-4 0 -2.4414062E-4 -1.2207031E-4 -2.4414062E-4 -3.0517578E-4l2.4414062E-4 -92.18869l0 0c0 -9.184448 7.4454956 -16.629913 16.629944 -16.629913z" fill-rule="evenodd"/><path fill="#ff3258" fill-opacity="0.0941" d="m835.6546 504.11795l0 0l0 0c4.4105225 0 8.640442 1.7520752 11.759155 4.8707886c3.1187134 3.118744 4.8707886 7.3486023 4.8707886 11.759125l0 19.118103c0 1.8310547E-4 -1.2207031E-4 3.0517578E-4 -3.0517578E-4 3.0517578E-4l-33.259583 -3.0517578E-4l0 0c-1.2207031E-4 0 -2.4414062E-4 -1.2207031E-4 -2.4414062E-4 -2.4414062E-4l2.4414062E-4 -19.117859l0 0c0 -9.184448 7.4454956 -16.629913 16.629944 -16.629913z" fill-rule="evenodd"/><path fill="#ff3258" fill-opacity="0.0941" d="m883.76044 467.5812l0 0l0 0c4.4105225 0 8.640381 1.7520752 11.759094 4.8707886c3.1187134 3.1187134 4.8707886 7.3486023 4.8707886 11.759125l0 55.653564c0 1.2207031E-4 -1.2207031E-4 2.4414062E-4 -2.4414062E-4 2.4414062E-4l-33.259583 -2.4414062E-4l0 0c-1.2207031E-4 0 -3.0517578E-4 -1.2207031E-4 -3.0517578E-4 -3.0517578E-4l3.0517578E-4 -55.65326l0 0c0 -9.184448 7.4454956 -16.629913 16.629944 -16.629913z" fill-rule="evenodd"/><path fill="#ff3258" fill-opacity="0.0941" d="m883.76044 394.50797l0 0l0 0c4.4105225 0 8.640381 1.7520752 11.759094 4.8707886c3.1187134 3.1187134 4.8707886 7.3486023 4.8707886 11.759125l0 128.72443c0 1.2207031E-4 -1.2207031E-4 2.4414062E-4 -2.4414062E-4 2.4414062E-4l-33.259583 -2.4414062E-4l0 0c-1.2207031E-4 0 -3.0517578E-4 -1.2207031E-4 -3.0517578E-4 -3.0517578E-4l3.0517578E-4 -128.72412l0 0c0 -9.184448 7.4454956 -16.629913 16.629944 -16.629913z" fill-rule="evenodd"/><path fill="#ff3258" fill-opacity="0.0941" d="m883.76044 431.04462l0 0l0 0c4.4105225 0 8.640381 1.7520752 11.759094 4.8707886c3.1187134 3.1187134 4.8707886 7.3486023 4.8707886 11.759125l0 92.188995c0 1.2207031E-4 -1.2207031E-4 2.4414062E-4 -2.4414062E-4 2.4414062E-4l-33.259583 -2.4414062E-4l0 0c-1.2207031E-4 0 -3.0517578E-4 -1.2207031E-4 -3.0517578E-4 -3.0517578E-4l3.0517578E-4 -92.18869l0 0c0 -9.184448 7.4454956 -16.629913 16.629944 -16.629913z" fill-rule="evenodd"/><path fill="#ff3258" fill-opacity="0.0941" d="m883.76044 504.11795l0 0l0 0c4.4105225 0 8.640381 1.7520752 11.759094 4.8707886c3.1187134 3.118744 4.8707886 7.3486023 4.8707886 11.759125l0 19.118103c0 1.8310547E-4 -1.2207031E-4 3.0517578E-4 -2.4414062E-4 3.0517578E-4l-33.259583 -3.0517578E-4l0 0c-1.2207031E-4 0 -3.0517578E-4 -1.2207031E-4 -3.0517578E-4 -2.4414062E-4l3.0517578E-4 -19.117859l0 0c0 -9.184448 7.4454956 -16.629913 16.629944 -16.629913z" fill-rule="evenodd"/><path fill="#ff3258" fill-opacity="0.0941" d="m931.86615 467.5812l0 0l0 0c4.4105225 0 8.640381 1.7520752 11.759094 4.8707886c3.1187134 3.1187134 4.8707886 7.3486023 4.8707886 11.759125l0 55.653564c0 1.2207031E-4 -1.2207031E-4 2.4414062E-4 -2.4414062E-4 2.4414062E-4l-33.259583 -2.4414062E-4l0 0c-1.2207031E-4 0 -2.4414062E-4 -1.2207031E-4 -2.4414062E-4 -3.0517578E-4l2.4414062E-4 -55.65326l0 0c0 -9.184448 7.4454956 -16.629913 16.629944 -16.629913z" fill-rule="evenodd"/><path fill="#ff3258" fill-opacity="0.0941" d="m931.86615 394.50797l0 0l0 0c4.4105225 0 8.640381 1.7520752 11.759094 4.8707886c3.1187134 3.1187134 4.8707886 7.3486023 4.8707886 11.759125l0 128.72443c0 1.2207031E-4 -1.2207031E-4 2.4414062E-4 -2.4414062E-4 2.4414062E-4l-33.259583 -2.4414062E-4l0 0c-1.2207031E-4 0 -2.4414062E-4 -1.2207031E-4 -2.4414062E-4 -3.0517578E-4l2.4414062E-4 -128.72412l0 0c0 -9.184448 7.4454956 -16.629913 16.629944 -16.629913z" fill-rule="evenodd"/><path fill="#ff3258" fill-opacity="0.0941" d="m931.86615 431.04462l0 0l0 0c4.4105225 0 8.640381 1.7520752 11.759094 4.8707886c3.1187134 3.1187134 4.8707886 7.3486023 4.8707886 11.759125l0 92.188995c0 1.2207031E-4 -1.2207031E-4 2.4414062E-4 -2.4414062E-4 2.4414062E-4l-33.259583 -2.4414062E-4l0 0c-1.2207031E-4 0 -2.4414062E-4 -1.2207031E-4 -2.4414062E-4 -3.0517578E-4l2.4414062E-4 -92.18869l0 0c0 -9.184448 7.4454956 -16.629913 16.629944 -16.629913z" fill-rule="evenodd"/><path fill="#ff3258" fill-opacity="0.0941" d="m931.86615 357.97116l0 0l0 0c4.4105225 0 8.640381 1.7520752 11.759094 4.8707886c3.1187134 3.1187134 4.8707886 7.3486023 4.8707886 11.759155l0 165.25986c0 1.2207031E-4 -1.2207031E-4 2.4414062E-4 -2.4414062E-4 2.4414062E-4l-33.259583 -2.4414062E-4l0 0c-1.2207031E-4 0 -2.4414062E-4 -1.8310547E-4 -2.4414062E-4 -3.0517578E-4l2.4414062E-4 -165.25955l0 0c0 -9.184479 7.4454956 -16.629944 16.629944 -16.629944z" fill-rule="evenodd"/><path fill="#ff3258" fill-opacity="0.0941" d="m931.86615 504.11795l0 0l0 0c4.4105225 0 8.640381 1.7520752 11.759094 4.8707886c3.1187134 3.118744 4.8707886 7.3486023 4.8707886 11.759125l0 19.118103c0 1.8310547E-4 -1.2207031E-4 3.0517578E-4 -2.4414062E-4 3.0517578E-4l-33.259583 -3.0517578E-4l0 0c-1.2207031E-4 0 -2.4414062E-4 -1.2207031E-4 -2.4414062E-4 -2.4414062E-4l2.4414062E-4 -19.117859l0 0c0 -9.184448 7.4454956 -16.629913 16.629944 -16.629913z" fill-rule="evenodd"/><path fill="#ff3258" fill-opacity="0.0941" d="m888.2913 211.66142l0 0c0 -11.497971 9.320984 -20.818909 20.818909 -20.818909l0 0c5.5215454 0 10.816895 2.1934204 14.721191 6.0977173c3.9042969 3.9042969 6.0977173 9.1996765 6.0977173 14.721191l0 0c0 11.497955 -9.320923 20.818893 -20.818909 20.818893l0 0c-11.497925 0 -20.818909 -9.320938 -20.818909 -20.818893z" fill-rule="evenodd"/><path fill="#ff3258" fill-opacity="0.0941" d="m712.1872 386.9136l0 0c-2.58313 8.914825 -11.904114 14.047668 -20.818909 11.464539l0 0c-4.281067 -1.240448 -7.893982 -4.1307373 -10.044006 -8.035034c-2.1500244 -3.9042969 -2.6610107 -8.502808 -1.4205933 -12.783844l0 0c2.58313 -8.914825 11.904114 -14.047699 20.818909 -11.464569l0 0c8.914856 2.58313 14.0477295 11.904053 11.4646 20.818909z" fill-rule="evenodd"/><path fill="#ff3258" fill-opacity="0.0941" d="m836.2647 283.91425l0 0c18.415833 0 33.34485 14.928986 33.34485 33.34482l0 0c0 8.843628 -3.5131226 17.325012 -9.7664795 23.57837c-6.253357 6.253357 -14.734741 9.7664795 -23.57837 9.7664795l0 0c-18.415833 0 -33.344788 -14.928986 -33.344788 -33.34485l0 0c0 -18.415833 14.928955 -33.34482 33.344788 -33.34482z" fill-rule="evenodd"/><path fill="#ff3258" fill-opacity="0.0941" d="m813.7002 292.70868l0 0c9.801636 -9.008759 24.022583 -11.324127 36.17572 -5.8898926c12.153137 5.4342346 19.909363 17.5766 19.73059 30.888153l-33.341797 -0.44787598z" fill-rule="evenodd"/><path fill="#ff3258" fill-opacity="0.0941" d="m836.2682 296.56314l0 0c11.428162 0 20.692505 9.264374 20.692505 20.692505l0 0c0 5.4880066 -2.1801147 10.751221 -6.06073 14.631836c-3.8805542 3.8805847 -9.143799 6.0606995 -14.631775 6.0606995l0 0c-11.428162 0 -20.692505 -9.264374 -20.692505 -20.692535l0 0c0 -11.428131 9.264343 -20.692505 20.692505 -20.692505z" fill-rule="evenodd"/><path fill="#ff3258" fill-opacity="0.0941" d="m925.7254 199.11703l0 0c5.821594 7.7107086 5.573303 18.41333 -0.59954834 25.84578c-6.1728516 7.4324493 -16.64795 9.641418 -25.296387 5.334442c-8.6484375 -4.3069916 -13.197266 -13.998016 -10.984985 -23.402863c2.2122192 -9.404846 10.604187 -16.05185 20.265747 -16.05185l0 20.818893z" fill-rule="evenodd"/><path fill="#ff3258" fill-opacity="0.0941" d="m907.3644 83.878654l0 0c-10.624634 14.686798 -31.145874 17.981392 -45.83539 7.358696l0 0c-7.054199 -5.101204 -11.792603 -12.795204 -13.172852 -21.389412c-1.38031 -8.594212 0.7106323 -17.384636 5.812744 -24.437485l0 0c10.624695 -14.686794 31.145935 -17.981392 45.83545 -7.358692l0 0c14.689514 10.6227 17.984741 31.140102 7.3600464 45.826893z" fill-rule="evenodd"/><path fill="#ff3258" fill-opacity="0.0941" d="m847.9479 65.31851l0 0c-0.3305664 -16.088425 11.054443 -30.043423 26.884033 -32.952755c15.82959 -2.9093304 31.434082 6.085251 36.84778 21.23943c5.4136963 15.154175 -0.96032715 31.99752 -15.051453 39.773163l-15.861572 -28.733818z" fill-rule="evenodd"/><path fill="#ff3258" fill-opacity="0.0941" d="m566.91235 172.6892l0 0c0 -74.71064 60.56494 -135.27559 135.27557 -135.27559l0 0c35.87732 0 70.28522 14.252209 95.6543 39.621304c25.36908 25.369095 39.621338 59.776978 39.621338 95.65428l0 0c0 74.71065 -60.56494 135.27559 -135.27563 135.27559l0 0c-74.71063 0 -135.27557 -60.56494 -135.27557 -135.27559z" fill-rule="evenodd"/><path fill="#ff3258" fill-opacity="0.0941" d="m599.1709 103.03936l0 0c38.477295 -56.907074 115.801575 -71.84737 172.70868 -33.37008l0 0c27.327698 18.47744 46.196045 47.054 52.454163 79.44316c6.2581177 32.38916 -0.60668945 65.93776 -19.084106 93.2655l0 0c-38.477295 56.90706 -115.801575 71.84737 -172.70868 33.37007l0 0c-56.907043 -38.47728 -71.84735 -115.80159 -33.370056 -172.70865z" fill-rule="evenodd"/><path fill="#ff3258" fill-opacity="0.0941" d="m589.1371 247.39746l0 0c-27.312927 -41.5578 -29.621948 -94.75075 -6.0128174 -138.51898c23.60913 -43.76822 69.32922 -71.05369 119.05896 -71.05369l0 135.27559z" fill-rule="evenodd"/><path fill="#111111" d="m634.6362 126.97012l0 0c25.248535 -37.320534 75.970825 -47.10681 113.29132 -21.858269l0 0c17.921997 12.124779 30.293335 30.872429 34.39258 52.118675c4.099182 21.246246 -0.40948486 43.250717 -12.534302 61.17267l0 0c-25.248535 37.320526 -75.970764 47.10681 -113.29132 21.858261l0 0c-37.320557 -25.248535 -47.10681 -75.970795 -21.858276 -113.291336z" fill-rule="evenodd"/><path fill="#ff3258" fill-opacity="0.0941" d="m584.13855 106.620865l0 0c23.919128 -42.73689 69.06952 -69.20793 118.04468 -69.20793l0 135.27559z" fill-rule="evenodd"/><path fill="#ff3258" fill-opacity="0.0941" d="m680.3448 388.2298l0 0c-2.781372 -7.2862854 -0.18444824 -15.528687 6.2713623 -19.904572c6.4558716 -4.375885 15.073914 -3.73526 20.811768 1.5470886c5.737854 5.282318 7.0875854 13.818085 3.2594604 20.613068c-3.828186 6.7949524 -11.828125 10.063293 -19.319092 7.8927307l4.677124 -16.141724z" fill-rule="evenodd"/><path fill="#000000" fill-opacity="0.0" d="m86.509186 169.43045l475.93698 0l0 196.62991l-475.93698 0z" fill-rule="evenodd"/><path fill="#ff3258" d="m122.86856 276.8379q0.53125 0 0.90625 0.40625l2.546875 2.765625q-2.109375 2.609375 -5.203125 4.015625q-3.078125 1.390625 -7.390625 1.390625q-3.859375 0 -6.953125 -1.3125q-3.078125 -1.328125 -5.265625 -3.671875q-2.1875 -2.359375 -3.359375 -5.625q-1.15625 -3.265625 -1.15625 -7.140625q0 -3.90625 1.296875 -7.15625q1.296875 -3.25 3.640625 -5.5937347q2.359375 -2.359375 5.640625 -3.671875q3.28125 -1.3125 7.234375 -1.3125q3.859375 0 6.75 1.25q2.890625 1.234375 4.96875 3.265625l-2.171875 2.9999847q-0.1875 0.296875 -0.484375 0.515625q-0.296875 0.203125 -0.828125 0.203125q-0.5625 0 -1.140625 -0.421875q-0.5625 -0.4375 -1.453125 -0.9375q-0.890625 -0.515625 -2.25 -0.93748474q-1.359375 -0.4375 -3.4375 -0.4375q-2.453125 0 -4.5 0.85935974q-2.046875 0.84375 -3.53125 2.4375q-1.46875 1.578125 -2.296875 3.84375q-0.828125 2.265625 -0.828125 5.09375q0 2.9375 0.828125 5.21875q0.828125 2.28125 2.234375 3.84375q1.421875 1.546875 3.34375 2.375q1.921875 0.828125 4.125 0.828125q1.3125 0 2.375 -0.140625q1.078125 -0.140625 1.96875 -0.453125q0.90625 -0.3125 1.703125 -0.796875q0.8125 -0.5 1.609375 -1.21875q0.234375 -0.21875 0.5 -0.34375q0.265625 -0.140625 0.578125 -0.140625zm16.730774 14.953125q-0.265625 0.625 -0.6875 0.953125q-0.421875 0.328125 -1.28125 0.328125l-4.421875 0l4.609375 -9.875l-9.953125 -22.796875l5.1875 0q0.71875 0 1.09375 0.34375q0.390625 0.328125 0.578125 0.765625l5.25 12.765625q0.265625 0.625 0.453125 1.296875q0.203125 0.671875 0.34375 1.34375q0.1875 -0.703125 0.421875 -1.34375q0.234375 -0.65625 0.484375 -1.328125l4.953125 -12.734375q0.1875 -0.484375 0.625 -0.796875q0.453125 -0.3125 1.0 -0.3125l4.75 0l-13.40625 31.390625zm33.378418 -26.1875q-0.265625 0.34375 -0.515625 0.53125q-0.25 0.1875 -0.734375 0.1875q-0.453125 0 -0.890625 -0.265625q-0.421875 -0.28125 -1.03125 -0.625q-0.59375 -0.34375 -1.421875 -0.625q-0.828125 -0.28125 -2.046875 -0.28125q-1.5625 0 -2.75 0.5625q-1.171875 0.5625 -1.953125 1.625q-0.765625 1.0625 -1.15625 2.5625q-0.390625 1.5 -0.390625 3.390625q0 1.96875 0.421875 3.515625q0.421875 1.53125 1.21875 2.578125q0.796875 1.03125 1.921875 1.578125q1.125 0.53125 2.546875 0.53125q1.40625 0 2.28125 -0.34375q0.875 -0.34375 1.46875 -0.765625q0.609375 -0.421875 1.046875 -0.765625q0.453125 -0.359375 1.0 -0.359375q0.71875 0 1.078125 0.5625l1.703125 2.15625q-0.984375 1.15625 -2.140625 1.9375q-1.140625 0.78125 -2.375 1.25q-1.234375 0.453125 -2.5625 0.640625q-1.3125 0.203125 -2.609375 0.203125q-2.28125 0 -4.296875 -0.84375q-2.015625 -0.859375 -3.515625 -2.484375q-1.5 -1.640625 -2.375 -4.0q-0.875 -2.375 -0.875 -5.390625q0 -2.71875 0.78125 -5.03125q0.78125 -2.3125 2.28125 -4.0q1.515625 -1.703125 3.75 -2.65625q2.234375 -0.96875 5.140625 -0.96875q2.75 0 4.828125 0.890625q2.078125 0.890625 3.734375 2.546875l-1.5625 2.15625zm11.91156 -16.23436l0 35.656235l-5.9375 0l0 -35.656235l5.9375 0zm13.007965 11.031235l0 24.625l-5.9375 0l0 -24.625l5.9375 0zm0.890625 -7.1718597q0 0.765625 -0.3125 1.4375q-0.3125 0.671875 -0.828125 1.171875q-0.515625 0.49998474 -1.21875 0.81248474q-0.703125 0.296875 -1.484375 0.296875q-0.765625 0 -1.453125 -0.296875q-0.6875 -0.3125 -1.1875 -0.81248474q-0.5 -0.5 -0.8125 -1.171875q-0.296875 -0.671875 -0.296875 -1.4375q0 -0.796875 0.296875 -1.484375q0.3125 -0.703125 0.8125 -1.203125q0.5 -0.5 1.1875 -0.796875q0.6875 -0.3125 1.453125 -0.3125q0.78125 0 1.484375 0.3125q0.703125 0.296875 1.21875 0.796875q0.515625 0.5 0.828125 1.203125q0.3125 0.6875 0.3125 1.484375zm20.414215 11.968735q-0.234375 0.390625 -0.5 0.546875q-0.265625 0.15625 -0.671875 0.15625q-0.4375 0 -0.9375 -0.234375q-0.484375 -0.25 -1.140625 -0.546875q-0.640625 -0.296875 -1.46875 -0.53125q-0.828125 -0.25 -1.953125 -0.25q-1.75 0 -2.765625 0.75q-1.0 0.734375 -1.0 1.9375q0 0.796875 0.515625 1.34375q0.515625 0.53125 1.359375 0.9375q0.859375 0.40625 1.9375 0.734375q1.078125 0.328125 2.203125 0.71875q1.140625 0.375 2.21875 0.875q1.078125 0.484375 1.921875 1.234375q0.859375 0.75 1.375 1.8125q0.515625 1.0625 0.515625 2.546875q0 1.765625 -0.65625 3.265625q-0.640625 1.5 -1.890625 2.59375q-1.25 1.09375 -3.09375 1.71875q-1.828125 0.609375 -4.203125 0.609375q-1.265625 0 -2.484375 -0.234375q-1.203125 -0.234375 -2.328125 -0.640625q-1.109375 -0.40625 -2.0625 -0.953125q-0.9375 -0.546875 -1.65625 -1.203125l1.359375 -2.25q0.265625 -0.40625 0.625 -0.625q0.359375 -0.21875 0.90625 -0.21875q0.5625 0 1.046875 0.3125q0.5 0.3125 1.140625 0.671875q0.65625 0.359375 1.53125 0.671875q0.875 0.3125 2.21875 0.3125q1.046875 0 1.796875 -0.25q0.765625 -0.25 1.25 -0.65625q0.5 -0.421875 0.71875 -0.953125q0.234375 -0.546875 0.234375 -1.125q0 -0.859375 -0.515625 -1.40625q-0.515625 -0.5625 -1.375 -0.96875q-0.84375 -0.40625 -1.9375 -0.71875q-1.09375 -0.328125 -2.234375 -0.703125q-1.140625 -0.390625 -2.234375 -0.90625q-1.078125 -0.515625 -1.9375 -1.3125q-0.84375 -0.796875 -1.359375 -1.9375q-0.515625 -1.15625 -0.515625 -2.796875q0 -1.515625 0.59375 -2.875q0.59375 -1.375 1.75 -2.390625q1.171875 -1.015625 2.90625 -1.625q1.75 -0.625 4.03125 -0.625q2.546875 0 4.625 0.84375q2.09375 0.84375 3.484375 2.21875l-1.34375 2.125zm14.444687 20.21875q-3.1875 0 -4.921875 -1.8125q-1.71875 -1.8125 -1.71875 -5.015625l0 -13.75l-2.5 0q-0.484375 0 -0.828125 -0.3125q-0.34375 -0.3125 -0.34375 -0.9375l0 -2.34375l3.953125 -0.65625l1.25 -6.7187347q0.09375 -0.46875 0.4375 -0.734375q0.359375 -0.265625 0.890625 -0.265625l3.0625 0l0 7.7499847l6.484375 0l0 4.21875l-6.484375 0l0 13.34375q0 1.15625 0.578125 1.8125q0.578125 0.640625 1.53125 0.640625q0.5625 0 0.921875 -0.125q0.375 -0.140625 0.65625 -0.28125q0.28125 -0.140625 0.484375 -0.265625q0.21875 -0.140625 0.4375 -0.140625q0.265625 0 0.4375 0.140625q0.171875 0.125 0.359375 0.375l1.78125 2.890625q-1.296875 1.078125 -2.984375 1.640625q-1.671875 0.546875 -3.484375 0.546875zm16.810318 -25.015625l0 24.625l-5.9375 0l0 -24.625l5.9375 0zm0.890625 -7.1718597q0 0.765625 -0.3125 1.4375q-0.3125 0.671875 -0.828125 1.171875q-0.515625 0.49998474 -1.21875 0.81248474q-0.703125 0.296875 -1.484375 0.296875q-0.765625 0 -1.453125 -0.296875q-0.6875 -0.3125 -1.1875 -0.81248474q-0.5 -0.5 -0.8125 -1.171875q-0.296875 -0.671875 -0.296875 -1.4375q0 -0.796875 0.296875 -1.484375q0.3125 -0.703125 0.8125 -1.203125q0.5 -0.5 1.1875 -0.796875q0.6875 -0.3125 1.453125 -0.3125q0.78125 0 1.484375 0.3125q0.703125 0.296875 1.21875 0.796875q0.515625 0.5 0.828125 1.203125q0.3125 0.6875 0.3125 1.484375zm23.101715 12.374985q-0.265625 0.34375 -0.515625 0.53125q-0.25 0.1875 -0.734375 0.1875q-0.453125 0 -0.890625 -0.265625q-0.421875 -0.28125 -1.03125 -0.625q-0.59375 -0.34375 -1.421875 -0.625q-0.828125 -0.28125 -2.046875 -0.28125q-1.5625 0 -2.75 0.5625q-1.171875 0.5625 -1.953125 1.625q-0.765625 1.0625 -1.15625 2.5625q-0.390625 1.5 -0.390625 3.390625q0 1.96875 0.421875 3.515625q0.421875 1.53125 1.21875 2.578125q0.796875 1.03125 1.921875 1.578125q1.125 0.53125 2.546875 0.53125q1.40625 0 2.28125 -0.34375q0.875 -0.34375 1.46875 -0.765625q0.609375 -0.421875 1.046875 -0.765625q0.453125 -0.359375 1.0 -0.359375q0.71875 0 1.078125 0.5625l1.703125 2.15625q-0.984375 1.15625 -2.140625 1.9375q-1.140625 0.78125 -2.375 1.25q-1.234375 0.453125 -2.5625 0.640625q-1.3125 0.203125 -2.609375 0.203125q-2.28125 0 -4.296875 -0.84375q-2.015625 -0.859375 -3.515625 -2.484375q-1.5 -1.640625 -2.375 -4.0q-0.875 -2.375 -0.875 -5.390625q0 -2.71875 0.78125 -5.03125q0.78125 -2.3125 2.28125 -4.0q1.515625 -1.703125 3.75 -2.65625q2.234375 -0.96875 5.140625 -0.96875q2.75 0 4.828125 0.890625q2.078125 0.890625 3.734375 2.546875l-1.5625 2.15625zm15.191162 19.421875l0 -34.70311l11.984375 0q3.40625 0 5.8125 0.65625q2.421875 0.640625 3.96875 1.84375q1.546875 1.1875 2.265625 2.90625q0.71875 1.7031097 0.71875 3.8281097q0 1.234375 -0.359375 2.34375q-0.359375 1.109375 -1.125 2.09375q-0.75 0.96875 -1.921875 1.765625q-1.15625 0.78125 -2.765625 1.34375q7.15625 1.609375 7.15625 7.71875q0 2.21875 -0.84375 4.09375q-0.84375 1.859375 -2.453125 3.21875q-1.609375 1.359375 -3.96875 2.125q-2.34375 0.765625 -5.359375 0.765625l-13.109375 0zm6.453125 -15.21875l0 10.171875l6.5625 0q1.796875 0 3.0 -0.421875q1.21875 -0.4375 1.953125 -1.15625q0.734375 -0.71875 1.046875 -1.671875q0.328125 -0.96875 0.328125 -2.046875q0 -1.125 -0.359375 -2.015625q-0.359375 -0.90625 -1.125 -1.546875q-0.765625 -0.640625 -1.96875 -0.96875q-1.203125 -0.34375 -2.90625 -0.34375l-6.53125 0zm0 -4.46875l5.171875 0q3.28125 0 4.984375 -1.1875q1.703125 -1.203125 1.703125 -3.828125q0 -2.703125 -1.53125 -3.859375q-1.53125 -1.1562347 -4.796875 -1.1562347l-5.53125 0l0 10.031235zm30.803162 -4.9375l0 24.625l-5.9375 0l0 -24.625l5.9375 0zm0.890625 -7.1718597q0 0.765625 -0.3125 1.4375q-0.3125 0.671875 -0.828125 1.171875q-0.515625 0.49998474 -1.21875 0.81248474q-0.703125 0.296875 -1.484375 0.296875q-0.765625 0 -1.453125 -0.296875q-0.6875 -0.3125 -1.1875 -0.81248474q-0.5 -0.5 -0.8125 -1.171875q-0.296875 -0.671875 -0.296875 -1.4375q0 -0.796875 0.296875 -1.484375q0.3125 -0.703125 0.8125 -1.203125q0.5 -0.5 1.1875 -0.796875q0.6875 -0.3125 1.453125 -0.3125q0.78125 0 1.484375 0.3125q0.703125 0.296875 1.21875 0.796875q0.515625 0.5 0.828125 1.203125q0.3125 0.6875 0.3125 1.484375zm11.80484 -3.859375l0 20.42186l1.09375 0q0.609375 0 0.9375 -0.171875q0.34375 -0.171875 0.71875 -0.625l6.125 -7.5625q0.40625 -0.484375 0.859375 -0.75q0.46875 -0.28125 1.203125 -0.28125l5.421875 0l-7.65625 9.140625q-0.40625 0.515625 -0.84375 0.9375q-0.421875 0.40625 -0.921875 0.71875q0.5 0.359375 0.875 0.84375q0.390625 0.484375 0.78125 1.03125l8.203125 11.953125l-5.359375 0q-0.6875 0 -1.171875 -0.234375q-0.484375 -0.25 -0.859375 -0.828125l-6.265625 -9.328125q-0.359375 -0.546875 -0.71875 -0.71875q-0.359375 -0.171875 -1.078125 -0.171875l-1.34375 0l0 11.28125l-5.9375 0l0 -35.656235l5.9375 0zm29.203796 10.64061q2.328125 0 4.28125 0.75q1.953125 0.75 3.375 2.1875q1.421875 1.421875 2.203125 3.5q0.796875 2.0625 0.796875 4.734375q0 0.671875 -0.0625 1.125q-0.0625 0.4375 -0.21875 0.6875q-0.15625 0.25 -0.421875 0.359375q-0.25 0.109375 -0.671875 0.109375l-15.203125 0q0.265625 3.78125 2.03125 5.5625q1.78125 1.78125 4.703125 1.78125q1.4375 0 2.484375 -0.328125q1.046875 -0.34375 1.828125 -0.75q0.78125 -0.421875 1.359375 -0.75q0.59375 -0.34375 1.140625 -0.34375q0.359375 0 0.625 0.15625q0.265625 0.140625 0.46875 0.40625l1.71875 2.15625q-0.984375 1.15625 -2.203125 1.9375q-1.21875 0.78125 -2.5625 1.25q-1.328125 0.453125 -2.71875 0.640625q-1.375 0.203125 -2.671875 0.203125q-2.5625 0 -4.78125 -0.84375q-2.203125 -0.859375 -3.828125 -2.53125q-1.625 -1.671875 -2.5625 -4.125q-0.9375 -2.453125 -0.9375 -5.703125q0 -2.515625 0.8125 -4.734375q0.8125 -2.21875 2.328125 -3.859375q1.53125 -1.65625 3.71875 -2.609375q2.203125 -0.96875 4.96875 -0.96875zm0.125 4.25q-2.59375 0 -4.0625 1.46875q-1.46875 1.46875 -1.875 4.15625l11.140625 0q0 -1.15625 -0.3125 -2.171875q-0.3125 -1.03125 -0.96875 -1.796875q-0.640625 -0.765625 -1.625 -1.203125q-0.984375 -0.453125 -2.296875 -0.453125zm14.593445 3.796875l12.421875 0l0 4.9375l-12.421875 0l0 -4.9375zm36.93506 -11.421875q-0.265625 0.53125 -0.625 0.75q-0.34375 0.203125 -0.828125 0.203125q-0.46875 0 -1.078125 -0.359375q-0.59375 -0.375 -1.40625 -0.828125q-0.8125 -0.46873474 -1.90625 -0.82810974q-1.09375 -0.375 -2.578125 -0.375q-1.34375 0 -2.34375 0.328125q-1.0 0.3125 -1.6875 0.89060974q-0.6875 0.578125 -1.03125 1.390625q-0.328125 0.796875 -0.328125 1.75q0 1.234375 0.6875 2.046875q0.6875 0.8125 1.8125 1.390625q1.125 0.578125 2.5625 1.03125q1.453125 0.453125 2.953125 0.96875q1.5 0.515625 2.9375 1.203125q1.4375 0.6875 2.5625 1.734375q1.125 1.03125 1.8125 2.546875q0.6875 1.515625 0.6875 3.671875q0 2.359375 -0.8125 4.40625q-0.796875 2.046875 -2.34375 3.578125q-1.546875 1.515625 -3.78125 2.40625q-2.234375 0.875 -5.109375 0.875q-1.65625 0 -3.265625 -0.328125q-1.609375 -0.328125 -3.09375 -0.921875q-1.46875 -0.609375 -2.75 -1.4375q-1.28125 -0.84375 -2.296875 -1.875l1.875 -3.09375q0.265625 -0.34375 0.640625 -0.5625q0.375 -0.234375 0.828125 -0.234375q0.59375 0 1.28125 0.5q0.703125 0.484375 1.65625 1.09375q0.953125 0.59375 2.234375 1.09375q1.28125 0.484375 3.078125 0.484375q2.765625 0 4.265625 -1.3125q1.515625 -1.3125 1.515625 -3.75q0 -1.375 -0.6875 -2.234375q-0.671875 -0.875 -1.8125 -1.453125q-1.125 -0.59375 -2.5625 -1.0q-1.4375 -0.40625 -2.921875 -0.890625q-1.484375 -0.484375 -2.9375 -1.15625q-1.4375 -0.671875 -2.5625 -1.75q-1.125 -1.078125 -1.8125 -2.6875q-0.6875 -1.625 -0.6875 -4.0q0 -1.90625 0.75 -3.703125q0.765625 -1.7968597 2.21875 -3.1874847q1.453125 -1.390625 3.5625 -2.234375q2.109375 -0.84375 4.828125 -0.84375q3.078125 0 5.65625 0.96875q2.59375 0.953125 4.421875 2.6875l-1.578125 3.0468597zm6.8144226 28.390625l0 -35.656235l5.921875 0l0 13.70311q1.4375 -1.375 3.15625 -2.21875q1.734375 -0.84375 4.0625 -0.84375q2.03125 0 3.578125 0.6875q1.5625 0.6875 2.609375 1.921875q1.046875 1.234375 1.578125 2.953125q0.546875 1.71875 0.546875 3.78125l0 15.671875l-5.921875 0l0 -15.671875q0 -2.25 -1.046875 -3.484375q-1.046875 -1.25 -3.140625 -1.25q-1.53125 0 -2.875 0.703125q-1.34375 0.6875 -2.546875 1.890625l0 17.8125l-5.921875 0zm46.58481 0l-2.671875 0q-0.84375 0 -1.328125 -0.25q-0.46875 -0.25 -0.703125 -1.015625l-0.53125 -1.765625q-0.9375 0.84375 -1.84375 1.484375q-0.890625 0.640625 -1.859375 1.078125q-0.953125 0.421875 -2.03125 0.640625q-1.078125 0.21875 -2.40625 0.21875q-1.5625 0 -2.890625 -0.421875q-1.3125 -0.421875 -2.265625 -1.265625q-0.9375 -0.84375 -1.46875 -2.078125q-0.53125 -1.25 -0.53125 -2.90625q0 -1.40625 0.734375 -2.75q0.734375 -1.359375 2.4375 -2.453125q1.703125 -1.09375 4.53125 -1.8125q2.84375 -0.71875 7.046875 -0.8125l0 -1.4375q0 -2.484375 -1.046875 -3.671875q-1.046875 -1.1875 -3.046875 -1.1875q-1.4375 0 -2.40625 0.34375q-0.953125 0.328125 -1.65625 0.75q-0.703125 0.421875 -1.3125 0.765625q-0.59375 0.328125 -1.3125 0.328125q-0.609375 0 -1.046875 -0.3125q-0.421875 -0.3125 -0.6875 -0.765625l-1.078125 -1.890625q4.25 -3.890625 10.25 -3.890625q2.15625 0 3.84375 0.71875q1.703125 0.703125 2.875 1.96875q1.171875 1.25 1.78125 3.0q0.625 1.75 0.625 3.84375l0 15.546875zm-11.53125 -3.703125q0.921875 0 1.6875 -0.15625q0.765625 -0.171875 1.453125 -0.5q0.6875 -0.34375 1.3125 -0.828125q0.640625 -0.5 1.296875 -1.171875l0 -4.15625q-2.59375 0.125 -4.34375 0.453125q-1.734375 0.3125 -2.796875 0.828125q-1.046875 0.5 -1.5 1.171875q-0.4375 0.671875 -0.4375 1.46875q0 1.546875 0.921875 2.21875q0.921875 0.671875 2.40625 0.671875zm17.362305 3.703125l0 -24.625l3.46875 0q0.921875 0 1.28125 0.34375q0.359375 0.328125 0.484375 1.140625l0.359375 2.984375q1.3125 -2.28125 3.078125 -3.59375q1.78125 -1.328125 4.0 -1.328125q1.8125 0 3.015625 0.84375l-0.765625 4.4375q-0.0625 0.421875 -0.3125 0.609375q-0.234375 0.171875 -0.640625 0.171875q-0.359375 0 -0.984375 -0.15625q-0.625 -0.171875 -1.65625 -0.171875q-1.859375 0 -3.171875 1.03125q-1.3125 1.015625 -2.234375 2.96875l0 15.34375l-5.921875 0zm29.779816 -25.015625q2.328125 0 4.28125 0.75q1.953125 0.75 3.375 2.1875q1.421875 1.421875 2.203125 3.5q0.796875 2.0625 0.796875 4.734375q0 0.671875 -0.0625 1.125q-0.0625 0.4375 -0.21875 0.6875q-0.15625 0.25 -0.421875 0.359375q-0.25 0.109375 -0.671875 0.109375l-15.203125 0q0.265625 3.78125 2.03125 5.5625q1.78125 1.78125 4.703125 1.78125q1.4375 0 2.484375 -0.328125q1.046875 -0.34375 1.828125 -0.75q0.78125 -0.421875 1.359375 -0.75q0.59375 -0.34375 1.140625 -0.34375q0.359375 0 0.625 0.15625q0.265625 0.140625 0.46875 0.40625l1.71875 2.15625q-0.984375 1.15625 -2.203125 1.9375q-1.21875 0.78125 -2.5625 1.25q-1.328125 0.453125 -2.71875 0.640625q-1.375 0.203125 -2.671875 0.203125q-2.5625 0 -4.78125 -0.84375q-2.203125 -0.859375 -3.828125 -2.53125q-1.625 -1.671875 -2.5625 -4.125q-0.9375 -2.453125 -0.9375 -5.703125q0 -2.515625 0.8125 -4.734375q0.8125 -2.21875 2.328125 -3.859375q1.53125 -1.65625 3.71875 -2.609375q2.203125 -0.96875 4.96875 -0.96875zm0.125 4.25q-2.59375 0 -4.0625 1.46875q-1.46875 1.46875 -1.875 4.15625l11.140625 0q0 -1.15625 -0.3125 -2.171875q-0.3125 -1.03125 -0.96875 -1.796875q-0.640625 -0.765625 -1.625 -1.203125q-0.984375 -0.453125 -2.296875 -0.453125z" fill-rule="nonzero"/><path fill="#000000" fill-opacity="0.0" d="m86.509186 341.25198l574.61414 0l0 73.00787l-574.61414 0z" fill-rule="evenodd"/><path fill="#ff3258" d="m107.77481 355.4507l0 1.734375l-4.9375 0l0 13.546875l-2.078125 0l0 -13.546875l-4.953125 0l0 -1.734375l11.96875 0zm1.8803864 15.28125l0 -15.703125l1.890625 0l0 6.34375q0.6875 -0.734375 1.53125 -1.171875q0.84375 -0.4375 1.953125 -0.4375q0.875 0 1.546875 0.296875q0.6875 0.28125 1.140625 0.828125q0.453125 0.53125 0.6875 1.296875q0.234375 0.75 0.234375 1.671875l0 6.875l-1.890625 0l0 -6.875q0 -1.234375 -0.5625 -1.90625q-0.5625 -0.671875 -1.71875 -0.671875q-0.84375 0 -1.578125 0.40625q-0.71875 0.390625 -1.34375 1.09375l0 7.953125l-1.890625 0zm16.123978 -10.96875q0.96875 0 1.796875 0.328125q0.828125 0.3125 1.421875 0.9375q0.59375 0.609375 0.921875 1.515625q0.34375 0.890625 0.34375 2.046875q0 0.453125 -0.09375 0.609375q-0.09375 0.140625 -0.359375 0.140625l-7.1875 0q0.015625 1.015625 0.265625 1.78125q0.265625 0.75 0.703125 1.265625q0.453125 0.5 1.0625 0.75q0.625 0.25 1.390625 0.25q0.71875 0 1.234375 -0.15625q0.515625 -0.171875 0.890625 -0.359375q0.375 -0.203125 0.625 -0.359375q0.25 -0.171875 0.4375 -0.171875q0.234375 0 0.359375 0.1875l0.53125 0.6875q-0.34375 0.421875 -0.84375 0.75q-0.484375 0.3125 -1.046875 0.515625q-0.5625 0.203125 -1.15625 0.296875q-0.59375 0.109375 -1.1875 0.109375q-1.125 0 -2.0625 -0.375q-0.9375 -0.390625 -1.625 -1.109375q-0.6875 -0.734375 -1.078125 -1.8125q-0.375 -1.078125 -0.375 -2.484375q0 -1.125 0.34375 -2.109375q0.34375 -0.984375 0.984375 -1.703125q0.65625 -0.71875 1.59375 -1.125q0.9375 -0.40625 2.109375 -0.40625zm0.046875 1.390625q-1.375 0 -2.171875 0.796875q-0.78125 0.796875 -0.96875 2.203125l5.875 0q0 -0.65625 -0.1875 -1.203125q-0.171875 -0.5625 -0.53125 -0.953125q-0.34375 -0.40625 -0.859375 -0.625q-0.5 -0.21875 -1.15625 -0.21875zm23.66716 9.578125l-2.078125 0l0 -6.953125l-8.234375 0l0 6.953125l-2.078125 0l0 -15.28125l2.078125 0l0 6.8125l8.234375 0l0 -6.8125l2.078125 0l0 15.28125zm11.358322 0l-0.828125 0q-0.28125 0 -0.453125 -0.078125q-0.171875 -0.09375 -0.21875 -0.375l-0.21875 -1.0q-0.421875 0.390625 -0.828125 0.703125q-0.40625 0.296875 -0.859375 0.5q-0.453125 0.203125 -0.953125 0.3125q-0.5 0.109375 -1.125 0.109375q-0.625 0 -1.1875 -0.171875q-0.546875 -0.1875 -0.953125 -0.53125q-0.390625 -0.359375 -0.640625 -0.890625q-0.234375 -0.546875 -0.234375 -1.28125q0 -0.640625 0.34375 -1.21875q0.359375 -0.59375 1.140625 -1.046875q0.78125 -0.46875 2.046875 -0.765625q1.28125 -0.296875 3.109375 -0.328125l0 -0.84375q0 -1.265625 -0.546875 -1.90625q-0.53125 -0.640625 -1.59375 -0.640625q-0.6875 0 -1.171875 0.171875q-0.46875 0.171875 -0.8125 0.390625q-0.34375 0.21875 -0.59375 0.40625q-0.25 0.171875 -0.5 0.171875q-0.1875 0 -0.328125 -0.09375q-0.140625 -0.109375 -0.234375 -0.265625l-0.34375 -0.609375q0.90625 -0.859375 1.9375 -1.28125q1.03125 -0.4375 2.28125 -0.4375q0.921875 0 1.625 0.3125q0.703125 0.296875 1.171875 0.828125q0.484375 0.53125 0.71875 1.296875q0.25 0.75 0.25 1.65625l0 6.90625zm-4.921875 -1.15625q0.5 0 0.90625 -0.09375q0.421875 -0.109375 0.796875 -0.296875q0.375 -0.1875 0.703125 -0.453125q0.34375 -0.265625 0.65625 -0.609375l0 -2.25q-1.3125 0.046875 -2.234375 0.21875q-0.90625 0.15625 -1.484375 0.421875q-0.578125 0.265625 -0.84375 0.625q-0.265625 0.359375 -0.265625 0.8125q0 0.421875 0.140625 0.734375q0.140625 0.3125 0.375 0.515625q0.234375 0.1875 0.546875 0.28125q0.328125 0.09375 0.703125 0.09375zm7.875778 1.15625l0 -15.703125l1.90625 0l0 6.453125q0.671875 -0.78125 1.53125 -1.25q0.875 -0.46875 2.0 -0.46875q0.9375 0 1.6875 0.359375q0.765625 0.34375 1.296875 1.046875q0.53125 0.6875 0.8125 1.71875q0.296875 1.03125 0.296875 2.375q0 1.1875 -0.328125 2.21875q-0.3125 1.03125 -0.921875 1.78125q-0.59375 0.75 -1.46875 1.1875q-0.859375 0.4375 -1.953125 0.4375q-1.046875 0 -1.78125 -0.40625q-0.71875 -0.40625 -1.265625 -1.140625l-0.09375 0.984375q-0.09375 0.40625 -0.5 0.40625l-1.21875 0zm4.8125 -9.453125q-0.921875 0 -1.625 0.421875q-0.703125 0.421875 -1.28125 1.203125l0 5.21875q0.515625 0.71875 1.140625 1.0q0.625 0.28125 1.390625 0.28125q1.515625 0 2.3125 -1.0625q0.8125 -1.078125 0.8125 -3.078125q0 -1.0625 -0.1875 -1.8125q-0.1875 -0.765625 -0.546875 -1.25q-0.34375 -0.484375 -0.859375 -0.703125q-0.5 -0.21875 -1.15625 -0.21875zm9.156708 -1.34375l0 10.796875l-1.90625 0l0 -10.796875l1.90625 0zm0.421875 -3.390625q0 0.265625 -0.109375 0.515625q-0.109375 0.234375 -0.296875 0.421875q-0.1875 0.1875 -0.4375 0.296875q-0.25 0.109375 -0.515625 0.109375q-0.28125 0 -0.53125 -0.109375q-0.234375 -0.109375 -0.421875 -0.296875q-0.1875 -0.1875 -0.296875 -0.421875q-0.09375 -0.25 -0.09375 -0.515625q0 -0.28125 0.09375 -0.53125q0.109375 -0.25 0.296875 -0.4375q0.1875 -0.1875 0.421875 -0.296875q0.25 -0.109375 0.53125 -0.109375q0.265625 0 0.515625 0.109375q0.25 0.109375 0.4375 0.296875q0.1875 0.1875 0.296875 0.4375q0.109375 0.25 0.109375 0.53125zm6.194336 14.359375q-1.28125 0 -1.96875 -0.71875q-0.6875 -0.71875 -0.6875 -2.0625l0 -6.609375l-1.296875 0q-0.171875 0 -0.296875 -0.09375q-0.109375 -0.109375 -0.109375 -0.3125l0 -0.765625l1.765625 -0.21875l0.4375 -3.34375q0.03125 -0.15625 0.140625 -0.25q0.125 -0.109375 0.296875 -0.109375l0.96875 0l0 3.71875l3.09375 0l0 1.375l-3.09375 0l0 6.484375q0 0.6875 0.328125 1.015625q0.328125 0.328125 0.84375 0.328125q0.3125 0 0.53125 -0.078125q0.21875 -0.078125 0.375 -0.171875q0.15625 -0.09375 0.265625 -0.171875q0.109375 -0.078125 0.203125 -0.078125q0.140625 0 0.265625 0.171875l0.546875 0.90625q-0.484375 0.453125 -1.1875 0.71875q-0.6875 0.265625 -1.421875 0.265625zm10.861588 -9.1875q-0.125 0.234375 -0.390625 0.234375q-0.15625 0 -0.359375 -0.109375q-0.203125 -0.125 -0.5 -0.265625q-0.28125 -0.15625 -0.6875 -0.28125q-0.40625 -0.125 -0.96875 -0.125q-0.484375 0 -0.875 0.125q-0.375 0.125 -0.640625 0.34375q-0.265625 0.203125 -0.421875 0.5q-0.140625 0.28125 -0.140625 0.609375q0 0.40625 0.234375 0.6875q0.25 0.28125 0.640625 0.484375q0.390625 0.203125 0.890625 0.359375q0.5 0.15625 1.03125 0.328125q0.53125 0.171875 1.03125 0.390625q0.5 0.203125 0.890625 0.53125q0.40625 0.3125 0.640625 0.78125q0.234375 0.46875 0.234375 1.109375q0 0.75 -0.265625 1.390625q-0.265625 0.625 -0.796875 1.09375q-0.515625 0.46875 -1.28125 0.734375q-0.75 0.265625 -1.734375 0.265625q-1.125 0 -2.046875 -0.359375q-0.921875 -0.375 -1.5625 -0.953125l0.453125 -0.71875q0.078125 -0.140625 0.1875 -0.21875q0.125 -0.078125 0.328125 -0.078125q0.1875 0 0.390625 0.15625q0.21875 0.140625 0.515625 0.328125q0.3125 0.171875 0.75 0.328125q0.4375 0.15625 1.078125 0.15625q0.5625 0 0.96875 -0.140625q0.421875 -0.15625 0.6875 -0.390625q0.28125 -0.25 0.40625 -0.5625q0.140625 -0.328125 0.140625 -0.6875q0 -0.453125 -0.234375 -0.75q-0.234375 -0.296875 -0.640625 -0.5q-0.390625 -0.203125 -0.90625 -0.359375q-0.5 -0.15625 -1.03125 -0.328125q-0.515625 -0.171875 -1.03125 -0.390625q-0.5 -0.21875 -0.90625 -0.546875q-0.390625 -0.328125 -0.625 -0.8125q-0.234375 -0.484375 -0.234375 -1.1875q0 -0.609375 0.25 -1.171875q0.265625 -0.578125 0.75 -1.015625q0.484375 -0.4375 1.203125 -0.6875q0.71875 -0.25 1.625 -0.25q1.078125 0 1.921875 0.34375q0.84375 0.328125 1.46875 0.90625l-0.4375 0.703125zm11.56015 -1.953125q1.1875 0 2.140625 0.390625q0.953125 0.390625 1.625 1.125q0.671875 0.71875 1.015625 1.75q0.359375 1.03125 0.359375 2.296875q0 1.28125 -0.359375 2.3125q-0.34375 1.015625 -1.015625 1.75q-0.671875 0.71875 -1.625 1.109375q-0.953125 0.390625 -2.140625 0.390625q-1.171875 0 -2.125 -0.390625q-0.953125 -0.390625 -1.625 -1.109375q-0.671875 -0.734375 -1.046875 -1.75q-0.359375 -1.03125 -0.359375 -2.3125q0 -1.265625 0.359375 -2.296875q0.375 -1.03125 1.046875 -1.75q0.671875 -0.734375 1.625 -1.125q0.953125 -0.390625 2.125 -0.390625zm0 9.640625q1.609375 0 2.390625 -1.0625q0.796875 -1.078125 0.796875 -3.0q0 -1.9375 -0.796875 -3.015625q-0.78125 -1.078125 -2.390625 -1.078125q-0.796875 0 -1.40625 0.28125q-0.59375 0.28125 -1.0 0.8125q-0.390625 0.515625 -0.59375 1.28125q-0.1875 0.75 -0.1875 1.71875q0 0.953125 0.1875 1.71875q0.203125 0.75 0.59375 1.265625q0.40625 0.515625 1.0 0.796875q0.609375 0.28125 1.40625 0.28125zm7.9208527 1.328125l0 -9.1875l-1.1875 -0.140625q-0.234375 -0.046875 -0.375 -0.15625q-0.140625 -0.109375 -0.140625 -0.328125l0 -0.78125l1.703125 0l0 -1.046875q0 -0.921875 0.25 -1.640625q0.265625 -0.71875 0.75 -1.21875q0.484375 -0.5 1.171875 -0.75q0.6875 -0.25 1.53125 -0.25q0.734375 0 1.34375 0.203125l-0.03125 0.953125q-0.015625 0.21875 -0.1875 0.265625q-0.171875 0.03125 -0.484375 0.03125l-0.328125 0q-0.484375 0 -0.890625 0.140625q-0.390625 0.125 -0.6875 0.40625q-0.28125 0.28125 -0.4375 0.75q-0.15625 0.46875 -0.15625 1.171875l0 0.984375l3.125 0l0 1.375l-3.0625 0l0 9.21875l-1.90625 0zm18.694458 -5.53125q0.140625 0.265625 0.25 0.546875q0.125 0.28125 0.234375 0.5625q0.09375 -0.296875 0.203125 -0.5625q0.125 -0.265625 0.28125 -0.546875l5.171875 -9.390625q0.140625 -0.25 0.28125 -0.296875q0.15625 -0.0625 0.4375 -0.0625l1.515625 0l0 15.28125l-1.8125 0l0 -11.234375q0 -0.21875 0.015625 -0.46875q0.015625 -0.265625 0.03125 -0.53125l-5.234375 9.5625q-0.265625 0.46875 -0.75 0.46875l-0.296875 0q-0.484375 0 -0.75 -0.46875l-5.34375 -9.59375q0.03125 0.28125 0.046875 0.546875q0.015625 0.265625 0.015625 0.484375l0 11.234375l-1.8125 0l0 -15.28125l1.515625 0q0.28125 0 0.421875 0.0625q0.15625 0.046875 0.296875 0.296875l5.28125 9.390625l0 0zm16.07486 -5.4375q0.96875 0 1.796875 0.328125q0.828125 0.3125 1.421875 0.9375q0.59375 0.609375 0.921875 1.515625q0.34375 0.890625 0.34375 2.046875q0 0.453125 -0.09375 0.609375q-0.09375 0.140625 -0.359375 0.140625l-7.1875 0q0.015625 1.015625 0.265625 1.78125q0.265625 0.75 0.703125 1.265625q0.453125 0.5 1.0625 0.75q0.625 0.25 1.390625 0.25q0.71875 0 1.234375 -0.15625q0.515625 -0.171875 0.890625 -0.359375q0.375 -0.203125 0.625 -0.359375q0.25 -0.171875 0.4375 -0.171875q0.234375 0 0.359375 0.1875l0.53125 0.6875q-0.34375 0.421875 -0.84375 0.75q-0.484375 0.3125 -1.046875 0.515625q-0.5625 0.203125 -1.15625 0.296875q-0.59375 0.109375 -1.1875 0.109375q-1.125 0 -2.0625 -0.375q-0.9375 -0.390625 -1.625 -1.109375q-0.6875 -0.734375 -1.078125 -1.8125q-0.375 -1.078125 -0.375 -2.484375q0 -1.125 0.34375 -2.109375q0.34375 -0.984375 0.984375 -1.703125q0.65625 -0.71875 1.59375 -1.125q0.9375 -0.40625 2.109375 -0.40625zm0.046875 1.390625q-1.375 0 -2.171875 0.796875q-0.78125 0.796875 -0.96875 2.203125l5.875 0q0 -0.65625 -0.1875 -1.203125q-0.171875 -0.5625 -0.53125 -0.953125q-0.34375 -0.40625 -0.859375 -0.625q-0.5 -0.21875 -1.15625 -0.21875zm6.8633575 9.578125l0 -10.796875l1.125 0q0.40625 0 0.515625 0.390625l0.140625 1.109375q0.59375 -0.734375 1.328125 -1.203125q0.75 -0.46875 1.71875 -0.46875q1.109375 0 1.78125 0.609375q0.671875 0.609375 0.984375 1.640625q0.21875 -0.59375 0.578125 -1.015625q0.375 -0.421875 0.828125 -0.703125q0.46875 -0.28125 0.984375 -0.40625q0.515625 -0.125 1.046875 -0.125q0.859375 0 1.515625 0.28125q0.671875 0.265625 1.125 0.78125q0.46875 0.515625 0.71875 1.28125q0.25 0.765625 0.25 1.75l0 6.875l-1.90625 0l0 -6.875q0 -1.265625 -0.5625 -1.921875q-0.546875 -0.65625 -1.59375 -0.65625q-0.46875 0 -0.890625 0.171875q-0.421875 0.15625 -0.75 0.484375q-0.3125 0.3125 -0.5 0.796875q-0.1875 0.484375 -0.1875 1.125l0 6.875l-1.90625 0l0 -6.875q0 -1.296875 -0.515625 -1.9375q-0.515625 -0.640625 -1.53125 -0.640625q-0.703125 0 -1.3125 0.375q-0.59375 0.375 -1.09375 1.03125l0 8.046875l-1.890625 0zm17.572784 0l0 -15.703125l1.90625 0l0 6.453125q0.671875 -0.78125 1.53125 -1.25q0.875 -0.46875 2.0 -0.46875q0.9375 0 1.6875 0.359375q0.765625 0.34375 1.296875 1.046875q0.53125 0.6875 0.8125 1.71875q0.296875 1.03125 0.296875 2.375q0 1.1875 -0.328125 2.21875q-0.3125 1.03125 -0.921875 1.78125q-0.59375 0.75 -1.46875 1.1875q-0.859375 0.4375 -1.953125 0.4375q-1.046875 0 -1.78125 -0.40625q-0.71875 -0.40625 -1.265625 -1.140625l-0.09375 0.984375q-0.09375 0.40625 -0.5 0.40625l-1.21875 0zm4.8125 -9.453125q-0.921875 0 -1.625 0.421875q-0.703125 0.421875 -1.28125 1.203125l0 5.21875q0.515625 0.71875 1.140625 1.0q0.625 0.28125 1.390625 0.28125q1.515625 0 2.3125 -1.0625q0.8125 -1.078125 0.8125 -3.078125q0 -1.0625 -0.1875 -1.8125q-0.1875 -0.765625 -0.546875 -1.25q-0.34375 -0.484375 -0.859375 -0.703125q-0.5 -0.21875 -1.15625 -0.21875zm11.312958 -1.515625q0.96875 0 1.796875 0.328125q0.828125 0.3125 1.421875 0.9375q0.59375 0.609375 0.921875 1.515625q0.34375 0.890625 0.34375 2.046875q0 0.453125 -0.09375 0.609375q-0.09375 0.140625 -0.359375 0.140625l-7.1875 0q0.015625 1.015625 0.265625 1.78125q0.265625 0.75 0.703125 1.265625q0.453125 0.5 1.0625 0.75q0.625 0.25 1.390625 0.25q0.71875 0 1.234375 -0.15625q0.515625 -0.171875 0.890625 -0.359375q0.375 -0.203125 0.625 -0.359375q0.25 -0.171875 0.4375 -0.171875q0.234375 0 0.359375 0.1875l0.53125 0.6875q-0.34375 0.421875 -0.84375 0.75q-0.484375 0.3125 -1.046875 0.515625q-0.5625 0.203125 -1.15625 0.296875q-0.59375 0.109375 -1.1875 0.109375q-1.125 0 -2.0625 -0.375q-0.9375 -0.390625 -1.625 -1.109375q-0.6875 -0.734375 -1.078125 -1.8125q-0.375 -1.078125 -0.375 -2.484375q0 -1.125 0.34375 -2.109375q0.34375 -0.984375 0.984375 -1.703125q0.65625 -0.71875 1.59375 -1.125q0.9375 -0.40625 2.109375 -0.40625zm0.046875 1.390625q-1.375 0 -2.171875 0.796875q-0.78125 0.796875 -0.96875 2.203125l5.875 0q0 -0.65625 -0.1875 -1.203125q-0.171875 -0.5625 -0.53125 -0.953125q-0.34375 -0.40625 -0.859375 -0.625q-0.5 -0.21875 -1.15625 -0.21875zm6.8633423 9.578125l0 -10.796875l1.078125 0q0.3125 0 0.421875 0.125q0.125 0.109375 0.171875 0.390625l0.125 1.6875q0.546875 -1.125 1.359375 -1.765625q0.828125 -0.640625 1.921875 -0.640625q0.453125 0 0.8125 0.109375q0.359375 0.09375 0.671875 0.28125l-0.25 1.421875q-0.0625 0.265625 -0.328125 0.265625q-0.140625 0 -0.453125 -0.09375q-0.3125 -0.109375 -0.859375 -0.109375q-1.0 0 -1.671875 0.578125q-0.65625 0.5625 -1.109375 1.671875l0 6.875l-1.890625 0zm14.767059 -9.015625q-0.125 0.234375 -0.390625 0.234375q-0.15625 0 -0.359375 -0.109375q-0.203125 -0.125 -0.5 -0.265625q-0.28125 -0.15625 -0.6875 -0.28125q-0.40625 -0.125 -0.96875 -0.125q-0.484375 0 -0.875 0.125q-0.375 0.125 -0.640625 0.34375q-0.265625 0.203125 -0.421875 0.5q-0.140625 0.28125 -0.140625 0.609375q0 0.40625 0.234375 0.6875q0.25 0.28125 0.640625 0.484375q0.390625 0.203125 0.890625 0.359375q0.5 0.15625 1.03125 0.328125q0.53125 0.171875 1.03125 0.390625q0.5 0.203125 0.890625 0.53125q0.40625 0.3125 0.640625 0.78125q0.234375 0.46875 0.234375 1.109375q0 0.75 -0.265625 1.390625q-0.265625 0.625 -0.796875 1.09375q-0.515625 0.46875 -1.28125 0.734375q-0.75 0.265625 -1.734375 0.265625q-1.125 0 -2.046875 -0.359375q-0.921875 -0.375 -1.5625 -0.953125l0.453125 -0.71875q0.078125 -0.140625 0.1875 -0.21875q0.125 -0.078125 0.328125 -0.078125q0.1875 0 0.390625 0.15625q0.21875 0.140625 0.515625 0.328125q0.3125 0.171875 0.75 0.328125q0.4375 0.15625 1.078125 0.15625q0.5625 0 0.96875 -0.140625q0.421875 -0.15625 0.6875 -0.390625q0.28125 -0.25 0.40625 -0.5625q0.140625 -0.328125 0.140625 -0.6875q0 -0.453125 -0.234375 -0.75q-0.234375 -0.296875 -0.640625 -0.5q-0.390625 -0.203125 -0.90625 -0.359375q-0.5 -0.15625 -1.03125 -0.328125q-0.515625 -0.171875 -1.03125 -0.390625q-0.5 -0.21875 -0.90625 -0.546875q-0.390625 -0.328125 -0.625 -0.8125q-0.234375 -0.484375 -0.234375 -1.1875q0 -0.609375 0.25 -1.171875q0.265625 -0.578125 0.75 -1.015625q0.484375 -0.4375 1.203125 -0.6875q0.71875 -0.25 1.625 -0.25q1.078125 0 1.921875 0.34375q0.84375 0.328125 1.46875 0.90625l-0.4375 0.703125zm5.825775 -1.78125l1.5625 0q0.21875 0 0.359375 0.125q0.15625 0.109375 0.21875 0.265625l2.75 6.953125q0.140625 0.375 0.21875 0.765625q0.09375 0.390625 0.171875 0.75q0.09375 -0.359375 0.1875 -0.75q0.09375 -0.390625 0.234375 -0.765625l2.78125 -6.953125q0.0625 -0.171875 0.203125 -0.28125q0.140625 -0.109375 0.359375 -0.109375l1.484375 0l-4.40625 10.796875l-1.71875 0l-4.40625 -10.796875zm18.466797 1.78125q-0.125 0.234375 -0.390625 0.234375q-0.15625 0 -0.359375 -0.109375q-0.203125 -0.125 -0.5 -0.265625q-0.28125 -0.15625 -0.6875 -0.28125q-0.40625 -0.125 -0.96875 -0.125q-0.484375 0 -0.875 0.125q-0.375 0.125 -0.640625 0.34375q-0.265625 0.203125 -0.421875 0.5q-0.140625 0.28125 -0.140625 0.609375q0 0.40625 0.234375 0.6875q0.25 0.28125 0.640625 0.484375q0.390625 0.203125 0.890625 0.359375q0.5 0.15625 1.03125 0.328125q0.53125 0.171875 1.03125 0.390625q0.5 0.203125 0.890625 0.53125q0.40625 0.3125 0.640625 0.78125q0.234375 0.46875 0.234375 1.109375q0 0.75 -0.265625 1.390625q-0.265625 0.625 -0.796875 1.09375q-0.515625 0.46875 -1.28125 0.734375q-0.75 0.265625 -1.734375 0.265625q-1.125 0 -2.046875 -0.359375q-0.921875 -0.375 -1.5625 -0.953125l0.453125 -0.71875q0.078125 -0.140625 0.1875 -0.21875q0.125 -0.078125 0.328125 -0.078125q0.1875 0 0.390625 0.15625q0.21875 0.140625 0.515625 0.328125q0.3125 0.171875 0.75 0.328125q0.4375 0.15625 1.078125 0.15625q0.5625 0 0.96875 -0.140625q0.421875 -0.15625 0.6875 -0.390625q0.28125 -0.25 0.40625 -0.5625q0.140625 -0.328125 0.140625 -0.6875q0 -0.453125 -0.234375 -0.75q-0.234375 -0.296875 -0.640625 -0.5q-0.390625 -0.203125 -0.90625 -0.359375q-0.5 -0.15625 -1.03125 -0.328125q-0.515625 -0.171875 -1.03125 -0.390625q-0.5 -0.21875 -0.90625 -0.546875q-0.390625 -0.328125 -0.625 -0.8125q-0.234375 -0.484375 -0.234375 -1.1875q0 -0.609375 0.25 -1.171875q0.265625 -0.578125 0.75 -1.015625q0.484375 -0.4375 1.203125 -0.6875q0.71875 -0.25 1.625 -0.25q1.078125 0 1.921875 0.34375q0.84375 0.328125 1.46875 0.90625l-0.4375 0.703125zm2.4594727 7.84375q0 -0.28125 0.09375 -0.515625q0.109375 -0.25 0.28125 -0.421875q0.1875 -0.1875 0.421875 -0.296875q0.25 -0.109375 0.53125 -0.109375q0.265625 0 0.515625 0.109375q0.25 0.109375 0.421875 0.296875q0.1875 0.171875 0.28125 0.421875q0.109375 0.234375 0.109375 0.515625q0 0.28125 -0.109375 0.53125q-0.09375 0.234375 -0.28125 0.421875q-0.171875 0.171875 -0.421875 0.265625q-0.25 0.109375 -0.515625 0.109375q-0.28125 0 -0.53125 -0.109375q-0.234375 -0.09375 -0.421875 -0.265625q-0.171875 -0.1875 -0.28125 -0.421875q-0.09375 -0.25 -0.09375 -0.53125zm20.325317 -1.984375q0.171875 0 0.3125 0.140625l0.8125 0.890625q-0.9375 1.078125 -2.28125 1.6875q-1.34375 0.609375 -3.21875 0.609375q-1.65625 0 -3.0 -0.5625q-1.34375 -0.578125 -2.296875 -1.609375q-0.953125 -1.03125 -1.484375 -2.46875q-0.515625 -1.4375 -0.515625 -3.171875q0 -1.71875 0.5625 -3.15625q0.5625 -1.453125 1.578125 -2.484375q1.015625 -1.03125 2.421875 -1.59375q1.421875 -0.578125 3.125 -0.578125q1.6875 0 2.90625 0.53125q1.21875 0.515625 2.171875 1.40625l-0.671875 0.953125q-0.078125 0.109375 -0.171875 0.1875q-0.09375 0.0625 -0.28125 0.0625q-0.140625 0 -0.296875 -0.09375q-0.15625 -0.109375 -0.375 -0.25q-0.203125 -0.15625 -0.5 -0.328125q-0.28125 -0.171875 -0.671875 -0.3125q-0.390625 -0.15625 -0.921875 -0.25q-0.515625 -0.109375 -1.203125 -0.109375q-1.21875 0 -2.25 0.421875q-1.015625 0.421875 -1.75 1.203125q-0.734375 0.765625 -1.140625 1.890625q-0.40625 1.125 -0.40625 2.5q0 1.4375 0.40625 2.5625q0.40625 1.109375 1.109375 1.890625q0.71875 0.765625 1.6875 1.171875q0.96875 0.40625 2.09375 0.40625q0.671875 0 1.21875 -0.078125q0.546875 -0.078125 1.0 -0.25q0.46875 -0.171875 0.875 -0.4375q0.40625 -0.265625 0.8125 -0.625q0.171875 -0.15625 0.34375 -0.15625zm11.469055 3.15625l-0.828125 0q-0.28125 0 -0.453125 -0.078125q-0.171875 -0.09375 -0.21875 -0.375l-0.21875 -1.0q-0.421875 0.390625 -0.828125 0.703125q-0.40625 0.296875 -0.859375 0.5q-0.453125 0.203125 -0.953125 0.3125q-0.5 0.109375 -1.125 0.109375q-0.625 0 -1.1875 -0.171875q-0.546875 -0.1875 -0.953125 -0.53125q-0.390625 -0.359375 -0.640625 -0.890625q-0.234375 -0.546875 -0.234375 -1.28125q0 -0.640625 0.34375 -1.21875q0.359375 -0.59375 1.140625 -1.046875q0.78125 -0.46875 2.046875 -0.765625q1.28125 -0.296875 3.109375 -0.328125l0 -0.84375q0 -1.265625 -0.546875 -1.90625q-0.53125 -0.640625 -1.59375 -0.640625q-0.6875 0 -1.171875 0.171875q-0.46875 0.171875 -0.8125 0.390625q-0.34375 0.21875 -0.59375 0.40625q-0.25 0.171875 -0.5 0.171875q-0.1875 0 -0.328125 -0.09375q-0.140625 -0.109375 -0.234375 -0.265625l-0.34375 -0.609375q0.90625 -0.859375 1.9375 -1.28125q1.03125 -0.4375 2.28125 -0.4375q0.921875 0 1.625 0.3125q0.703125 0.296875 1.171875 0.828125q0.484375 0.53125 0.71875 1.296875q0.25 0.75 0.25 1.65625l0 6.90625zm-4.921875 -1.15625q0.5 0 0.90625 -0.09375q0.421875 -0.109375 0.796875 -0.296875q0.375 -0.1875 0.703125 -0.453125q0.34375 -0.265625 0.65625 -0.609375l0 -2.25q-1.3125 0.046875 -2.234375 0.21875q-0.90625 0.15625 -1.484375 0.421875q-0.578125 0.265625 -0.84375 0.625q-0.265625 0.359375 -0.265625 0.8125q0 0.421875 0.140625 0.734375q0.140625 0.3125 0.375 0.515625q0.234375 0.1875 0.546875 0.28125q0.328125 0.09375 0.703125 0.09375zm13.985168 -7.859375q-0.125 0.234375 -0.390625 0.234375q-0.15625 0 -0.359375 -0.109375q-0.203125 -0.125 -0.5 -0.265625q-0.28125 -0.15625 -0.6875 -0.28125q-0.40625 -0.125 -0.96875 -0.125q-0.484375 0 -0.875 0.125q-0.375 0.125 -0.640625 0.34375q-0.265625 0.203125 -0.421875 0.5q-0.140625 0.28125 -0.140625 0.609375q0 0.40625 0.234375 0.6875q0.25 0.28125 0.640625 0.484375q0.390625 0.203125 0.890625 0.359375q0.5 0.15625 1.03125 0.328125q0.53125 0.171875 1.03125 0.390625q0.5 0.203125 0.890625 0.53125q0.40625 0.3125 0.640625 0.78125q0.234375 0.46875 0.234375 1.109375q0 0.75 -0.265625 1.390625q-0.265625 0.625 -0.796875 1.09375q-0.515625 0.46875 -1.28125 0.734375q-0.75 0.265625 -1.734375 0.265625q-1.125 0 -2.046875 -0.359375q-0.921875 -0.375 -1.5625 -0.953125l0.453125 -0.71875q0.078125 -0.140625 0.1875 -0.21875q0.125 -0.078125 0.328125 -0.078125q0.1875 0 0.390625 0.15625q0.21875 0.140625 0.515625 0.328125q0.3125 0.171875 0.75 0.328125q0.4375 0.15625 1.078125 0.15625q0.5625 0 0.96875 -0.140625q0.421875 -0.15625 0.6875 -0.390625q0.28125 -0.25 0.40625 -0.5625q0.140625 -0.328125 0.140625 -0.6875q0 -0.453125 -0.234375 -0.75q-0.234375 -0.296875 -0.640625 -0.5q-0.390625 -0.203125 -0.90625 -0.359375q-0.5 -0.15625 -1.03125 -0.328125q-0.515625 -0.171875 -1.03125 -0.390625q-0.5 -0.21875 -0.90625 -0.546875q-0.390625 -0.328125 -0.625 -0.8125q-0.234375 -0.484375 -0.234375 -1.1875q0 -0.609375 0.25 -1.171875q0.265625 -0.578125 0.75 -1.015625q0.484375 -0.4375 1.203125 -0.6875q0.71875 -0.25 1.625 -0.25q1.078125 0 1.921875 0.34375q0.84375 0.328125 1.46875 0.90625l-0.4375 0.703125zm4.7250977 -1.78125l0 6.890625q0 1.21875 0.5625 1.890625q0.5625 0.671875 1.703125 0.671875q0.828125 0 1.5625 -0.390625q0.75 -0.390625 1.359375 -1.109375l0 -7.953125l1.90625 0l0 10.796875l-1.140625 0q-0.40625 0 -0.5 -0.390625l-0.15625 -1.171875q-0.703125 0.78125 -1.578125 1.265625q-0.875 0.46875 -2.0 0.46875q-0.890625 0 -1.578125 -0.296875q-0.671875 -0.296875 -1.125 -0.828125q-0.453125 -0.53125 -0.6875 -1.28125q-0.234375 -0.765625 -0.234375 -1.671875l0 -6.890625l1.90625 0zm18.139587 10.796875l-0.828125 0q-0.28125 0 -0.453125 -0.078125q-0.171875 -0.09375 -0.21875 -0.375l-0.21875 -1.0q-0.421875 0.390625 -0.828125 0.703125q-0.40625 0.296875 -0.859375 0.5q-0.453125 0.203125 -0.953125 0.3125q-0.5 0.109375 -1.125 0.109375q-0.625 0 -1.1875 -0.171875q-0.546875 -0.1875 -0.953125 -0.53125q-0.390625 -0.359375 -0.640625 -0.890625q-0.234375 -0.546875 -0.234375 -1.28125q0 -0.640625 0.34375 -1.21875q0.359375 -0.59375 1.140625 -1.046875q0.78125 -0.46875 2.046875 -0.765625q1.28125 -0.296875 3.109375 -0.328125l0 -0.84375q0 -1.265625 -0.546875 -1.90625q-0.53125 -0.640625 -1.59375 -0.640625q-0.6875 0 -1.171875 0.171875q-0.46875 0.171875 -0.8125 0.390625q-0.34375 0.21875 -0.59375 0.40625q-0.25 0.171875 -0.5 0.171875q-0.1875 0 -0.328125 -0.09375q-0.140625 -0.109375 -0.234375 -0.265625l-0.34375 -0.609375q0.90625 -0.859375 1.9375 -1.28125q1.03125 -0.4375 2.28125 -0.4375q0.921875 0 1.625 0.3125q0.703125 0.296875 1.171875 0.828125q0.484375 0.53125 0.71875 1.296875q0.25 0.75 0.25 1.65625l0 6.90625zm-4.921875 -1.15625q0.5 0 0.90625 -0.09375q0.421875 -0.109375 0.796875 -0.296875q0.375 -0.1875 0.703125 -0.453125q0.34375 -0.265625 0.65625 -0.609375l0 -2.25q-1.3125 0.046875 -2.234375 0.21875q-0.90625 0.15625 -1.484375 0.421875q-0.578125 0.265625 -0.84375 0.625q-0.265625 0.359375 -0.265625 0.8125q0 0.421875 0.140625 0.734375q0.140625 0.3125 0.375 0.515625q0.234375 0.1875 0.546875 0.28125q0.328125 0.09375 0.703125 0.09375zm9.922668 -14.546875l0 15.703125l-1.90625 0l0 -15.703125l1.90625 0zm10.029388 9.328125l0 6.375l-2.0625 0l0 -15.28125l4.328125 0q1.453125 0 2.5 0.296875q1.0625 0.296875 1.75 0.859375q0.6875 0.546875 1.015625 1.328125q0.328125 0.78125 0.328125 1.75q0 0.8125 -0.265625 1.515625q-0.25 0.703125 -0.734375 1.265625q-0.484375 0.5625 -1.1875 0.953125q-0.6875 0.390625 -1.578125 0.59375q0.390625 0.21875 0.6875 0.65625l4.453125 6.0625l-1.828125 0q-0.5625 0 -0.828125 -0.4375l-3.96875 -5.453125q-0.1875 -0.265625 -0.40625 -0.375q-0.203125 -0.109375 -0.640625 -0.109375l-1.5625 0zm0 -1.5l2.171875 0q0.90625 0 1.59375 -0.21875q0.6875 -0.21875 1.140625 -0.625q0.46875 -0.40625 0.703125 -0.953125q0.234375 -0.5625 0.234375 -1.234375q0 -1.359375 -0.90625 -2.046875q-0.890625 -0.703125 -2.671875 -0.703125l-2.265625 0l0 5.78125zm13.282074 -2.921875l0 10.796875l-1.90625 0l0 -10.796875l1.90625 0zm0.421875 -3.390625q0 0.265625 -0.109375 0.515625q-0.109375 0.234375 -0.296875 0.421875q-0.1875 0.1875 -0.4375 0.296875q-0.25 0.109375 -0.515625 0.109375q-0.28125 0 -0.53125 -0.109375q-0.234375 -0.109375 -0.421875 -0.296875q-0.1875 -0.1875 -0.296875 -0.421875q-0.09375 -0.25 -0.09375 -0.515625q0 -0.28125 0.09375 -0.53125q0.109375 -0.25 0.296875 -0.4375q0.1875 -0.1875 0.421875 -0.296875q0.25 -0.109375 0.53125 -0.109375q0.265625 0 0.515625 0.109375q0.25 0.109375 0.4375 0.296875q0.1875 0.1875 0.296875 0.4375q0.109375 0.25 0.109375 0.53125zm10.522461 14.1875q-0.40625 0 -0.5 -0.390625l-0.171875 -1.3125q-0.703125 0.84375 -1.59375 1.359375q-0.890625 0.5 -2.03125 0.5q-0.9375 0 -1.703125 -0.359375q-0.75 -0.359375 -1.28125 -1.046875q-0.53125 -0.703125 -0.828125 -1.734375q-0.28125 -1.03125 -0.28125 -2.375q0 -1.203125 0.3125 -2.21875q0.328125 -1.03125 0.921875 -1.78125q0.609375 -0.765625 1.46875 -1.203125q0.875 -0.4375 1.96875 -0.4375q1.0 0 1.703125 0.34375q0.703125 0.328125 1.25 0.9375l0 -5.984375l1.90625 0l0 15.703125l-1.140625 0zm-3.671875 -1.390625q0.921875 0 1.625 -0.421875q0.703125 -0.421875 1.28125 -1.203125l0 -5.234375q-0.515625 -0.703125 -1.140625 -0.984375q-0.625 -0.28125 -1.390625 -0.28125q-1.515625 0 -2.328125 1.078125q-0.796875 1.078125 -0.796875 3.078125q0 1.046875 0.171875 1.8125q0.1875 0.75 0.53125 1.234375q0.359375 0.484375 0.859375 0.703125q0.515625 0.21875 1.1875 0.21875zm12.266083 -9.578125q0.96875 0 1.796875 0.328125q0.828125 0.3125 1.421875 0.9375q0.59375 0.609375 0.921875 1.515625q0.34375 0.890625 0.34375 2.046875q0 0.453125 -0.09375 0.609375q-0.09375 0.140625 -0.359375 0.140625l-7.1875 0q0.015625 1.015625 0.265625 1.78125q0.265625 0.75 0.703125 1.265625q0.453125 0.5 1.0625 0.75q0.625 0.25 1.390625 0.25q0.71875 0 1.234375 -0.15625q0.515625 -0.171875 0.890625 -0.359375q0.375 -0.203125 0.625 -0.359375q0.25 -0.171875 0.4375 -0.171875q0.234375 0 0.359375 0.1875l0.53125 0.6875q-0.34375 0.421875 -0.84375 0.75q-0.484375 0.3125 -1.046875 0.515625q-0.5625 0.203125 -1.15625 0.296875q-0.59375 0.109375 -1.1875 0.109375q-1.125 0 -2.0625 -0.375q-0.9375 -0.390625 -1.625 -1.109375q-0.6875 -0.734375 -1.078125 -1.8125q-0.375 -1.078125 -0.375 -2.484375q0 -1.125 0.34375 -2.109375q0.34375 -0.984375 0.984375 -1.703125q0.65625 -0.71875 1.59375 -1.125q0.9375 -0.40625 2.109375 -0.40625zm0.046875 1.390625q-1.375 0 -2.171875 0.796875q-0.78125 0.796875 -0.96875 2.203125l5.875 0q0 -0.65625 -0.1875 -1.203125q-0.171875 -0.5625 -0.53125 -0.953125q-0.34375 -0.40625 -0.859375 -0.625q-0.5 -0.21875 -1.15625 -0.21875zm6.863373 9.578125l0 -10.796875l1.078125 0q0.3125 0 0.421875 0.125q0.125 0.109375 0.171875 0.390625l0.125 1.6875q0.546875 -1.125 1.359375 -1.765625q0.828125 -0.640625 1.921875 -0.640625q0.453125 0 0.8125 0.109375q0.359375 0.09375 0.671875 0.28125l-0.25 1.421875q-0.0625 0.265625 -0.328125 0.265625q-0.140625 0 -0.453125 -0.09375q-0.3125 -0.109375 -0.859375 -0.109375q-1.0 0 -1.671875 0.578125q-0.65625 0.5625 -1.109375 1.671875l0 6.875l-1.890625 0zm14.767029 -9.015625q-0.125 0.234375 -0.390625 0.234375q-0.15625 0 -0.359375 -0.109375q-0.203125 -0.125 -0.5 -0.265625q-0.28125 -0.15625 -0.6875 -0.28125q-0.40625 -0.125 -0.96875 -0.125q-0.484375 0 -0.875 0.125q-0.375 0.125 -0.640625 0.34375q-0.265625 0.203125 -0.421875 0.5q-0.140625 0.28125 -0.140625 0.609375q0 0.40625 0.234375 0.6875q0.25 0.28125 0.640625 0.484375q0.390625 0.203125 0.890625 0.359375q0.5 0.15625 1.03125 0.328125q0.53125 0.171875 1.03125 0.390625q0.5 0.203125 0.890625 0.53125q0.40625 0.3125 0.640625 0.78125q0.234375 0.46875 0.234375 1.109375q0 0.75 -0.265625 1.390625q-0.265625 0.625 -0.796875 1.09375q-0.515625 0.46875 -1.28125 0.734375q-0.75 0.265625 -1.734375 0.265625q-1.125 0 -2.046875 -0.359375q-0.921875 -0.375 -1.5625 -0.953125l0.453125 -0.71875q0.078125 -0.140625 0.1875 -0.21875q0.125 -0.078125 0.328125 -0.078125q0.1875 0 0.390625 0.15625q0.21875 0.140625 0.515625 0.328125q0.3125 0.171875 0.75 0.328125q0.4375 0.15625 1.078125 0.15625q0.5625 0 0.96875 -0.140625q0.421875 -0.15625 0.6875 -0.390625q0.28125 -0.25 0.40625 -0.5625q0.140625 -0.328125 0.140625 -0.6875q0 -0.453125 -0.234375 -0.75q-0.234375 -0.296875 -0.640625 -0.5q-0.390625 -0.203125 -0.90625 -0.359375q-0.5 -0.15625 -1.03125 -0.328125q-0.515625 -0.171875 -1.03125 -0.390625q-0.5 -0.21875 -0.90625 -0.546875q-0.390625 -0.328125 -0.625 -0.8125q-0.234375 -0.484375 -0.234375 -1.1875q0 -0.609375 0.25 -1.171875q0.265625 -0.578125 0.75 -1.015625q0.484375 -0.4375 1.203125 -0.6875q0.71875 -0.25 1.625 -0.25q1.078125 0 1.921875 0.34375q0.84375 0.328125 1.46875 0.90625l-0.4375 0.703125z" fill-rule="nonzero"/></g></svg>